<?xml version="1.0" encoding="iso-8859-1"?>
<!-- Uploaded to: SVG Repo, www.svgrepo.com, Generator: SVG Repo Mixer Tools -->
<svg height="800px" width="800px" version="1.1" id="Layer_1" xmlns="http://www.w3.org/2000/svg" xmlns:xlink="http://www.w3.org/1999/xlink" 
	 viewBox="0 0 512 512" xml:space="preserve">
<path style="fill:#5DACD8;" d="M329.784,390.624v45.618h34.673l-56.144,67.716l-56.155-67.716h34.684v-47.357
	c-17.045-3.623-32.834-10.647-46.609-20.347c-14.336-10.086-26.503-23.057-35.642-38.075
	c-11.726-19.258-18.487-41.885-18.487-66.087c0-29.432,9.987-56.518,26.767-78.077c4.393-5.671,9.271-10.967,14.567-15.811
	c0.011,0,0.011,0,0.011,0c14.831,5.439,27.67,15.008,37.106,27.307c-6.474,4.746-12.233,10.427-17.078,16.824
	c-10.471,13.829-16.67,31.072-16.67,49.758c0,17.628,5.516,33.979,14.953,47.39c0.683,0.98,1.387,1.938,2.114,2.885
	c8.456,11.011,19.61,19.83,32.493,25.446c1.508,0.672,3.05,1.288,4.614,1.861h0.011c8.853,3.237,18.421,5.01,28.408,5.01
	c45.607,0,82.581-36.974,82.581-82.592c0-45.607-36.974-82.581-82.581-82.581c-1.872,0-3.722,0.066-5.549,0.187
	c-9.139-15.019-21.295-27.989-35.631-38.075c12.916-4.415,26.767-6.816,41.18-6.816c70.293,0,127.284,56.981,127.284,127.284
	C440.684,329.13,392.336,382.576,329.784,390.624z"/>
<path style="fill:#E88158;" d="M326.326,248.057c0,37.172-15.933,70.623-41.334,93.9h-0.011
	c-14.831-5.439-27.659-14.997-37.106-27.307c20.469-15.019,33.748-39.253,33.748-66.593c0-18.916-6.364-36.346-17.067-50.264
	c-9.436-12.299-22.275-21.867-37.106-27.307c0,0,0,0-0.011,0c-8.853-3.237-18.421-5.01-28.397-5.01
	c-45.618,0-82.592,36.974-82.592,82.581c0,39.374,27.549,72.319,64.435,80.588c5.847,1.31,11.925,2.004,18.157,2.004
	c1.861,0,3.722-0.066,5.549-0.187c9.139,15.019,21.306,27.989,35.642,38.075c-10.35,3.534-21.317,5.781-32.68,6.529
	c-2.808,0.187-5.649,0.286-8.511,0.286c-70.304,0-127.295-56.992-127.295-127.295c0-64.743,48.348-118.2,110.911-126.238V86.1
	h-34.684V43.158h34.684V8.474H225.6v34.684h34.673V86.1H225.6v37.448c17.045,3.623,32.834,10.658,46.609,20.359h0.011
	c7.851,5.527,15.052,11.914,21.449,19.038c5.296,5.88,10.053,12.244,14.182,19.038c5.197,8.522,9.403,17.705,12.486,27.384
	C324.223,221.565,326.326,234.569,326.326,248.057z"/>
<path style="fill:#D37250;" d="M240.233,368.538c-10.35,3.534-21.317,5.781-32.68,6.529c-5.296-5.869-10.053-12.244-14.182-19.038
	c-5.186-8.511-9.403-17.694-12.486-27.384c5.847,1.31,11.925,2.004,18.157,2.004c1.861,0,3.722-0.066,5.549-0.187
	C213.73,345.48,225.897,358.451,240.233,368.538z"/>
<path style="fill:#4C9CBF;" d="M212.871,186.298c4.393-5.671,9.271-10.967,14.567-15.811c0.011,0,0.011,0,0.011,0
	c14.831,5.439,27.67,15.008,37.106,27.307c-6.474,4.746-12.233,10.427-17.078,16.824c-0.683-0.98-1.387-1.938-2.114-2.874
	C236.919,200.733,225.754,191.924,212.871,186.298z"/>
<path d="M448.728,264.159c0-32.813-11.877-64.476-33.444-89.154c-3.002-3.434-8.217-3.786-11.653-0.784
	c-3.434,3.002-3.785,8.218-0.784,11.653c18.936,21.668,29.365,49.47,29.365,78.285c0,59.698-44.579,110.452-103.696,118.058
	c-4.119,0.53-7.204,4.038-7.204,8.19v45.619c0,4.561,3.697,8.258,8.258,8.258h17.099l-38.57,46.52l-38.578-46.52h17.107
	c4.561,0,8.258-3.697,8.258-8.258v-47.357c0-3.899-2.727-7.267-6.542-8.077c-15.737-3.345-30.395-9.745-43.574-19.024
	c-13.537-9.524-24.753-21.506-33.341-35.616c-11.306-18.569-17.282-39.936-17.282-61.792c0-31.566,12.679-61.971,34.937-84.227
	c8.841,3.945,16.808,9.571,23.491,16.583c-19.072,17.113-30.241,41.797-30.241,67.643c0,20.225,6.494,39.351,18.773,55.303
	c10.526,13.716,24.639,24.1,40.814,30.033c0.083,0.03,0.165,0.059,0.249,0.087c9.933,3.602,20.367,5.428,31.014,5.428
	c50.089,0,90.839-40.755,90.839-90.85c0-50.089-40.75-90.839-90.839-90.839c-0.37,0-0.75,0.014-1.124,0.02
	c-6.311-9.589-13.73-18.257-22.181-25.907c7.637-1.517,15.428-2.299,23.304-2.299c26.021,0,50.734,8.242,71.47,23.835
	c1.488,1.119,3.229,1.658,4.957,1.658c2.507,0,4.983-1.137,6.606-3.296c2.742-3.646,2.008-8.822-1.636-11.563
	c-23.62-17.763-51.766-27.151-81.396-27.151c-13.609,0-27.004,2.033-39.893,6c-12.244-8.081-25.533-14.067-39.65-17.802V94.142
	h26.415c4.561,0,8.258-3.697,8.258-8.258V42.942c0-4.561-3.697-8.258-8.258-8.258h-26.415V8.258c0-4.561-3.697-8.258-8.258-8.258
	h-42.942c-4.561,0-8.258,3.697-8.258,8.258v26.426h-26.426c-4.561,0-8.258,3.697-8.258,8.258v42.942
	c0,4.561,3.697,8.258,8.258,8.258h26.426v20.391c-37.874,6.93-70.793,29.496-91.103,62.727c-2.378,3.891-1.152,8.974,2.739,11.353
	c1.344,0.821,2.831,1.213,4.299,1.213c2.781,0,5.498-1.405,7.055-3.953c18.963-31.027,50.425-51.468,86.32-56.079
	c4.12-0.53,7.205-4.038,7.205-8.191v-35.72c0-4.561-3.697-8.258-8.258-8.258h-26.426V51.2h26.426c4.561,0,8.258-3.697,8.258-8.258
	V16.516h26.426v26.426c0,4.561,3.697,8.258,8.258,8.258h26.415v26.426h-26.415c-4.561,0-8.258,3.697-8.258,8.258v37.448
	c0,3.9,2.727,7.267,6.541,8.077c15.722,3.341,30.381,9.745,43.571,19.032c0.024,0.018,0.05,0.03,0.075,0.046
	c13.497,9.509,24.69,21.474,33.269,35.572c11.299,18.555,17.271,39.918,17.271,61.78c0,31.572-12.677,61.98-34.934,84.237
	c-8.839-3.944-16.808-9.569-23.496-16.585c19.073-17.122,30.242-41.809,30.242-67.651c0-20.201-6.493-39.323-18.773-55.29
	c-10.522-13.714-24.635-24.099-40.814-30.033c-0.04-0.014-0.08-0.023-0.121-0.037c-0.074-0.026-0.15-0.05-0.225-0.076
	c-0.023-0.008-0.046-0.017-0.069-0.023c-9.885-3.563-20.256-5.378-30.837-5.378c-50.095,0-90.85,40.75-90.85,90.839
	c0,40.64,27.312,76.632,66.418,87.526c0.741,0.207,1.488,0.305,2.221,0.305c3.615,0,6.933-2.392,7.951-6.044
	c1.223-4.393-1.346-8.947-5.739-10.172c-31.991-8.912-54.334-38.36-54.334-71.615c0-40.982,33.346-74.323,74.334-74.323
	c4.261,0,8.479,0.364,12.628,1.075c-21.639,24.622-33.824,56.537-33.824,89.567c0,24.888,6.809,49.225,19.691,70.38
	c6.843,11.246,15.161,21.3,24.817,30.041c-7.638,1.516-15.433,2.299-23.313,2.299c-65.637,0-119.037-53.4-119.037-119.037
	c0-13.642,2.287-27.015,6.797-39.749c1.523-4.3-0.728-9.019-5.026-10.542c-4.3-1.525-9.019,0.728-10.542,5.026
	c-5.14,14.509-7.746,29.738-7.746,45.263c0,74.744,60.809,135.553,135.553,135.553c13.614,0,27.012-2.029,39.899-5.995
	c12.234,8.071,25.52,14.052,39.643,17.788v32.581h-26.426c-3.201,0-6.113,1.85-7.474,4.747c-1.361,2.897-0.926,6.319,1.118,8.783
	l56.155,67.716c1.569,1.892,3.9,2.986,6.358,2.986c2.458,0,4.787-1.096,6.357-2.987l56.144-67.716
	c2.043-2.464,2.477-5.886,1.118-8.783c-1.361-2.897-4.273-4.747-7.474-4.747h-26.415v-30.294
	C401.542,385.761,448.728,329.691,448.728,264.159z M321.578,190.324c37.043,4.184,65.93,35.692,65.93,73.836
	c0,40.988-33.341,74.334-74.323,74.334c-4.267,0-8.487-0.364-12.639-1.075c21.639-24.623,33.824-56.541,33.824-89.577
	C334.371,227.852,329.973,208.228,321.578,190.324z M273.151,247.841c0,20.702-8.759,40.501-23.773,54.469
	c-6.903-11.47-10.525-24.5-10.525-38.151c0-20.705,8.758-40.499,23.77-54.458C269.527,221.178,273.151,234.206,273.151,247.841z"/>
</svg>